<?xml version='1.0' encoding='utf-8'?>
<svg xmlns="http://www.w3.org/2000/svg" version="1.2" baseProfile="tiny" x="0" y="0" width="1200" height="900" viewBox="0 0 800 600"><defs /><defs /><rect fill="#eef6f3" x="0" y="0" width="800" height="600" /><path fill="#c8d8c8" fill-opacity="0.7" d="M 0 390 C 106.667 330 220 320 340 360 C 460 400 573.333 383.333 680 310 C 786.667 236.667 826.667 256.667 800 370 L 800 600 L 0 600 L 0 390 Z" /><rect fill="#d8d8d8" fill-opacity="0.85" x="0" y="120" width="340" height="480" /><path fill="#a8a8a8" fill-opacity="0.8" d="M 0 120 L 340 120 L 340 160 L 0 160 L 0 120 Z" /><circle fill="none" stroke="#7a9a7a" stroke-width="2.5" cx="170" cy="380" r="115" /><rect fill="#eef6f3" x="55" y="380" width="230" height="220" /><circle fill="#dce8dc" fill-opacity="0.6" cx="170" cy="380" r="100" /><path fill="none" stroke="#a88868" stroke-width="8" d="M 420 430 C 486.667 403.333 553.333 403.333 620 430" /><rect fill="#a88868" fill-opacity="0.7" x="500" y="430" width="40" height="70" /><ellipse fill="#a8c880" fill-opacity="0.7" cx="700" cy="460" rx="55" ry="28" /><ellipse fill="#98b870" fill-opacity="0.7" cx="740" cy="490" rx="48" ry="24" /><text fill="#6b3828" font-family="Arial, sans-serif" font-size="27" text-anchor="middle" x="400" y="510"><tspan fill="#6b3828" fill-opacity="0.85">Chapter 4: Architecture and Gardens</tspan></text><text fill="#6b3828" font-family="Arial, sans-serif" font-size="16" text-anchor="middle" x="400" y="550"><tspan fill="#6b3828" fill-opacity="0.7">Gardens contain worlds; bricks and tiles reveal poetry</tspan></text></svg>