<?xml version='1.0' encoding='utf-8'?>
<svg xmlns="http://www.w3.org/2000/svg" version="1.2" baseProfile="tiny" x="0" y="0" width="1200" height="900" viewBox="0 0 800 600"><defs /><defs /><rect fill="#f6efe0" x="0" y="0" width="800" height="600" /><ellipse fill="#a8d0c8" fill-opacity="0.9" cx="180" cy="230" rx="70" ry="30" /><path fill="none" stroke="#609890" stroke-width="3" d="M 110 230 C 113.333 270 136.667 293.333 180 300 C 223.333 293.333 246.667 270 250 230" /><circle fill="#f0e6d2" fill-opacity="0.9" stroke="#b89870" stroke-width="3" stroke-opacity="0.9" cx="480" cy="280" r="85" /><path fill="none" stroke="#c84838" stroke-width="3" d="M 440 260 L 460 300 L 500 240 L 520 300" /><path fill="none" stroke="#388038" stroke-width="3" d="M 520 250 L 540 290 L 580 230 L 600 290" /><rect fill="#946b47" x="320" y="380" width="6" height="120" /><rect fill="#946b47" x="340" y="380" width="6" height="120" /><path fill="#a8c880" fill-opacity="0.7" d="M 80 380 C 93.3333 366.667 106.667 370 120 390 C 106.667 410 93.3333 413.333 80 400 L 80 380 Z" /><text fill="#704828" font-family="Arial, sans-serif" font-size="28" text-anchor="middle" x="400" y="510"><tspan fill="#704828" fill-opacity="0.85">Chapter 8: Food Culture</tspan></text><text fill="#704828" font-family="Arial, sans-serif" font-size="16" text-anchor="middle" x="400" y="550"><tspan fill="#704828" fill-opacity="0.7">Every cup of tea and every meal carries the flavors of the East</tspan></text></svg>