<?xml version='1.0' encoding='utf-8'?>
<svg xmlns="http://www.w3.org/2000/svg" version="1.2" baseProfile="tiny" x="0" y="0" width="1200" height="900" viewBox="0 0 800 600"><defs /><defs /><rect fill="#f7f0dc" x="0" y="0" width="800" height="600" /><rect fill="#b83c3c" fill-opacity="0.85" x="0" y="0" width="180" height="600" /><rect fill="#b83c3c" fill-opacity="0.85" x="620" y="0" width="180" height="600" /><path fill="#b83c3c" fill-opacity="0.85" d="M 180 0 L 620 0 L 620 90 C 473.333 70 326.667 70 180 90 L 180 0 Z" /><ellipse fill="#c92828" fill-opacity="0.9" cx="400" cy="230" rx="75" ry="95" /><path fill-opacity="0.9" stroke="#ffffff" stroke-width="4" stroke-opacity="0.9" d="M 355 200 L 445 200 M 355 260 L 445 260" /><path fill="#f2e0c9" fill-opacity="0.9" stroke="#222222" stroke-width="1.5" stroke-opacity="0.9" d="M 260 310 L 540 310 L 400 460 L 260 310 Z" /><line stroke="#222222" stroke-width="2" x1="400" y1="310" x2="400" y2="460" /><circle fill="#d8b860" fill-opacity="0.9" stroke="#946b47" stroke-width="2" stroke-opacity="0.9" cx="100" cy="360" r="45" /><path fill="none" fill-opacity="0.35" stroke="#222222" stroke-width="2.5" stroke-opacity="0.35" d="M 560 180 C 600 140 640 180 680 160" /><text fill="#222222" font-family="Arial, sans-serif" font-size="26" text-anchor="middle" x="400" y="510"><tspan fill="#222222" fill-opacity="0.85">Chapter 6: Opera and Folk Performing Arts</tspan></text><text fill="#222222" font-family="Arial, sans-serif" font-size="16" text-anchor="middle" x="400" y="550"><tspan fill="#222222" fill-opacity="0.7">Painted faces take the stage, portraying life in all its forms</tspan></text></svg>