<?xml version='1.0' encoding='utf-8'?>
<svg xmlns="http://www.w3.org/2000/svg" version="1.2" baseProfile="tiny" x="0" y="0" width="1200" height="900" viewBox="0 0 800 600"><defs /><defs /><rect fill="#f5f0e6" x="0" y="0" width="800" height="600" /><path fill="#d8c8a8" fill-opacity="0.6" d="M 0 380 L 800 340 L 800 600 L 0 600 L 0 380 Z" /><rect fill="#fff8f0" fill-opacity="0.9" stroke="#d8c8a8" stroke-width="1" stroke-opacity="0.9" x="90" y="310" width="620" height="250" /><path fill="none" fill-opacity="0.35" stroke="#222222" stroke-width="1.2" stroke-opacity="0.35" d="M 180 480 C 260 426.667 340 416.667 420 450 C 500 483.333 580 473.333 660 420" /><path fill="none" fill-opacity="0.25" stroke="#222222" stroke-width="1" stroke-opacity="0.25" d="M 220 510 C 300 456.667 380 446.667 460 480 C 540 513.333 620 503.333 700 450" /><ellipse fill="#555555" fill-opacity="0.8" cx="140" cy="410" rx="55" ry="24" /><ellipse fill="#222222" fill-opacity="0.9" cx="140" cy="402" rx="40" ry="15" /><path stroke="#6b4423" stroke-width="6" stroke-linecap="round" d="M 620 520 L 720 420" /><polygon fill="#222222" points="720,420 730,405 710,405" /><rect fill="#c43c39" fill-opacity="0.85" x="700" y="480" width="38" height="38" /><path fill="none" fill-opacity="0.4" stroke="#222222" stroke-width="2.5" stroke-opacity="0.4" d="M 620 180 C 650 160 690 220 720 200" /><text fill="#222222" font-family="Arial, sans-serif" font-size="27" text-anchor="middle" x="400" y="510"><tspan fill="#222222" fill-opacity="0.85">Chapter 3: Calligraphy and Painting</tspan></text><text fill="#222222" font-family="Arial, sans-serif" font-size="16" text-anchor="middle" x="400" y="550"><tspan fill="#222222" fill-opacity="0.7">A brushstroke conjures clouds; ink forms mountains and waters</tspan></text></svg>